HIERARCHY
ROOT root
{
	OFFSET	0	13.1	24.9
	CHANNELS 6  Xposition Yposition Zposition Xrotation Yrotation Zrotation
	JOINT spine_1
	{
		OFFSET	0	9.99999	0
		CHANNELS 3  Xrotation Yrotation Zrotation
		JOINT spine_2
		{
			OFFSET	0	112	-10
			CHANNELS 3  Xrotation Yrotation Zrotation
			JOINT spine_3
			{
				OFFSET	0	206.5	19.3
				CHANNELS 3  Xrotation Yrotation Zrotation
				JOINT spine_4
				{
					OFFSET	0	110.4	14.6
					CHANNELS 3  Xrotation Yrotation Zrotation
					JOINT neck_1
					{
						OFFSET	0	71.8	-50.3
						CHANNELS 3  Xrotation Yrotation Zrotation
						JOINT neck_2
						{
							OFFSET	0	86.2	-25.8
							CHANNELS 3  Xrotation Yrotation Zrotation
							JOINT head_ee
							{
								OFFSET	0	179.8	-8.7
								CHANNELS 3  Xrotation Yrotation Zrotation
								End Site
								{
									OFFSET	1	0	0
								}
							}
						}
					}
					JOINT left_clavicle
					{
						OFFSET	-43.2	22.4	-70.8
						CHANNELS 3  Xrotation Yrotation Zrotation
						JOINT left_shoulder
						{
							OFFSET	-93.9	-5.79999	48.7
							CHANNELS 3  Xrotation Yrotation Zrotation
							JOINT left_elbow
							{
								OFFSET	-291.4	-30.8	15.2
								CHANNELS 3  Xrotation Yrotation Zrotation
								JOINT left_lowarm_twist
								{
									OFFSET	-110.7	-3.89999	13.6
									CHANNELS 3  Xrotation Yrotation Zrotation
									JOINT left_hand
									{
										OFFSET	-110.7	-3.89999	13.6
										CHANNELS 3  Xrotation Yrotation Zrotation
										JOINT left_ee
										{
											OFFSET	-80.8	-5.10001	12.1
											CHANNELS 3  Xrotation Yrotation Zrotation
											End Site
											{
												OFFSET	1	0	0
											}
										}
									}
								}
							}
						}
					}
					JOINT right_clavicle
					{
						OFFSET	43.2	22.4	-70.8
						CHANNELS 3  Xrotation Yrotation Zrotation
						JOINT right_shoulder
						{
							OFFSET	93.9	-5.79999	48.7
							CHANNELS 3  Xrotation Yrotation Zrotation
							JOINT right_elbow
							{
								OFFSET	291.4	-30.8	15.2
								CHANNELS 3  Xrotation Yrotation Zrotation
								JOINT right_lowarm_twist
								{
									OFFSET	110.7	-3.89999	13.6
									CHANNELS 3  Xrotation Yrotation Zrotation
									JOINT right_hand
									{
										OFFSET	110.7	-3.89999	13.6
										CHANNELS 3  Xrotation Yrotation Zrotation
										JOINT right_ee
										{
											OFFSET	80.8	-5.10001	12.1
											CHANNELS 3  Xrotation Yrotation Zrotation
											End Site
											{
												OFFSET	1	0	0
											}
										}
									}
								}
							}
						}
					}
				}
			}
		}
	}
	JOINT left_hip
	{
		OFFSET	-82.8	-127.5	0.300001
		CHANNELS 3  Xrotation Yrotation Zrotation
		JOINT left_knee
		{
			OFFSET	-28.2	-396.7	2.2
			CHANNELS 3  Xrotation Yrotation Zrotation
			JOINT left_ankle
			{
				OFFSET	-11.7	-411.3	35.4
				CHANNELS 3  Xrotation Yrotation Zrotation
				JOINT left_toes
				{
					OFFSET	0	-60	-88.6
					CHANNELS 3  Xrotation Yrotation Zrotation
					JOINT left_foot_ee
					{
						OFFSET	-22.5	-16.5	-42.2
						CHANNELS 3  Xrotation Yrotation Zrotation
						End Site
						{
							OFFSET	1	0	0
						}
					}
				}
			}
		}
	}
	JOINT right_hip
	{
		OFFSET	82.8	-127.5	0.300001
		CHANNELS 3  Xrotation Yrotation Zrotation
		JOINT right_knee
		{
			OFFSET	28.2	-396.7	2.2
			CHANNELS 3  Xrotation Yrotation Zrotation
			JOINT right_ankle
			{
				OFFSET	11.7	-411.3	35.4
				CHANNELS 3  Xrotation Yrotation Zrotation
				JOINT right_toes
				{
					OFFSET	0	-60	-88.6
					CHANNELS 3  Xrotation Yrotation Zrotation
					JOINT right_foot_ee
					{
						OFFSET	22.5	-16.5	-42.2
						CHANNELS 3  Xrotation Yrotation Zrotation
						End Site
						{
							OFFSET	1	0	0
						}
					}
				}
			}
		}
	}
}
MOTION
Frames: 10
Frame Time: 0.02
1041.4 574.639 -1682.42 -22.5463662318 14.4882416683 3.20760643207 11.1977 0.39744 1.57245 11.199 0.296589 1.59454 11.2037 0.270805 1.59912 11.2005 0.519928 1.53631 -19.01 4.49614 -6.75605 -19.0853 12.2065 -4.48903 -0.0 0.0 -0.0 -0.809282 20.1046 1.1586 -43.8164 -45.284 56.2666 0.399887 -11.205 0.0392271 5.00883 0.149354 -0.62216 5.32864 6.90721 41.3892 -0.0 0.0 -0.0 11.6294 25.541 -22.5875 -17.775 -8.07516 -72.9049 1.06727 27.8644 -0.264767 -46.6875 3.68878 -4.49854 8.10899 2.92894 -68.565 0.0 0.0 0.0 44.8357 -10.1829 -1.85265 -10.5794 0.288969 1.59558 26.2245 29.1668 -3.75938 11.4425 -0.0 -0.0 -0.0 0.0 -0.0 28.4012 16.0931 1.23776 -30.2121 -0.035886 -4.58296 41.1938 -10.0293 4.97999 21.2474 -0.0 -0.0 0.0 0.0 0.0 
1041.4 574.639 -1682.42 -22.6173039679 15.1333225198 3.48510564042 11.1977 0.39744 1.57245 11.199 0.296589 1.59454 11.2037 0.270805 1.59912 11.2005 0.519928 1.53631 -19.01 4.49614 -6.75605 -19.0853 12.2065 -4.48903 -0.0 0.0 -0.0 -0.809282 20.1046 1.1586 -43.8164 -45.284 56.2666 0.399887 -11.205 0.0392271 5.00883 0.149354 -0.62216 5.32864 6.90721 41.3892 -0.0 0.0 -0.0 11.6294 25.541 -22.5875 -17.775 -8.07516 -72.9049 1.06727 27.8644 -0.264767 -46.6875 3.68878 -4.49854 8.10899 2.92894 -68.565 0.0 0.0 0.0 44.8357 -10.1829 -1.85265 -10.5794 0.288969 1.59558 26.2245 29.1668 -3.75938 11.4425 -0.0 -0.0 -0.0 0.0 -0.0 28.4012 16.0931 1.23776 -30.2121 -0.035886 -4.58296 41.1938 -10.0293 4.97999 21.2474 -0.0 -0.0 0.0 0.0 0.0 
1041.4 574.639 -1682.42 -22.7174958831 15.9946216903 3.85850661514 11.1977 0.39744 1.57245 11.199 0.296589 1.59454 11.2037 0.270805 1.59912 11.2005 0.519928 1.53631 -19.01 4.49614 -6.75605 -19.0853 12.2065 -4.48903 -0.0 0.0 -0.0 -0.809282 20.1046 1.1586 -43.8164 -45.284 56.2666 0.399887 -11.205 0.0392271 5.00883 0.149354 -0.62216 5.32864 6.90721 41.3892 -0.0 0.0 -0.0 11.6294 25.541 -22.5875 -17.775 -8.07516 -72.9049 1.06727 27.8644 -0.264767 -46.6875 3.68878 -4.49854 8.10899 2.92894 -68.565 0.0 0.0 0.0 44.8357 -10.1829 -1.85265 -10.5794 0.288969 1.59558 26.2245 29.1668 -3.75938 11.4425 -0.0 -0.0 -0.0 0.0 -0.0 28.4012 16.0931 1.23776 -30.2121 -0.035886 -4.58296 41.1938 -10.0293 4.97999 21.2474 -0.0 -0.0 0.0 0.0 0.0 
1041.4 574.639 -1682.42 -22.7748995255 16.464979373 4.06389139637 11.1977 0.39744 1.57245 11.199 0.296589 1.59454 11.2037 0.270805 1.59912 11.2005 0.519928 1.53631 -19.01 4.49614 -6.75605 -19.0853 12.2065 -4.48903 -0.0 0.0 -0.0 -0.809282 20.1046 1.1586 -43.8164 -45.284 56.2666 0.399887 -11.205 0.0392271 5.00883 0.149354 -0.62216 5.32864 6.90721 41.3892 -0.0 0.0 -0.0 11.6294 25.541 -22.5875 -17.775 -8.07516 -72.9049 1.06727 27.8644 -0.264767 -46.6875 3.68878 -4.49854 8.10899 2.92894 -68.565 0.0 0.0 0.0 44.8357 -10.1829 -1.85265 -10.5794 0.288969 1.59558 26.2245 29.1668 -3.75938 11.4425 -0.0 -0.0 -0.0 0.0 -0.0 28.4012 16.0931 1.23776 -30.2121 -0.035886 -4.58296 41.1938 -10.0293 4.97999 21.2474 -0.0 -0.0 0.0 0.0 0.0 
1041.4 574.639 -1682.42 -22.8628154506 17.1565805259 4.36786966529 11.1977 0.39744 1.57245 11.199 0.296589 1.59454 11.2037 0.270805 1.59912 11.2005 0.519928 1.53631 -19.01 4.49614 -6.75605 -19.0853 12.2065 -4.48903 -0.0 0.0 -0.0 -0.809282 20.1046 1.1586 -43.8164 -45.284 56.2666 0.399887 -11.205 0.0392271 5.00883 0.149354 -0.62216 5.32864 6.90721 41.3892 -0.0 0.0 -0.0 11.6294 25.541 -22.5875 -17.775 -8.07516 -72.9049 1.06727 27.8644 -0.264767 -46.6875 3.68878 -4.49854 8.10899 2.92894 -68.565 0.0 0.0 0.0 44.8357 -10.1829 -1.85265 -10.5794 0.288969 1.59558 26.2245 29.1668 -3.75938 11.4425 -0.0 -0.0 -0.0 0.0 -0.0 28.4012 16.0931 1.23776 -30.2121 -0.035886 -4.58296 41.1938 -10.0293 4.97999 21.2474 -0.0 -0.0 0.0 0.0 0.0 
1041.4 574.639 -1682.42 -22.9165361138 17.563591052 4.54791193009 11.1977 0.39744 1.57245 11.199 0.296589 1.59454 11.2037 0.270805 1.59912 11.2005 0.519928 1.53631 -19.01 4.49614 -6.75605 -19.0853 12.2065 -4.48903 -0.0 0.0 -0.0 -0.809282 20.1046 1.1586 -43.8164 -45.284 56.2666 0.399887 -11.205 0.0392271 5.00883 0.149354 -0.62216 5.32864 6.90721 41.3892 -0.0 0.0 -0.0 11.6294 25.541 -22.5875 -17.775 -8.07516 -72.9049 1.06727 27.8644 -0.264767 -46.6875 3.68878 -4.49854 8.10899 2.92894 -68.565 0.0 0.0 0.0 44.8357 -10.1829 -1.85265 -10.5794 0.288969 1.59558 26.2245 29.1668 -3.75938 11.4425 -0.0 -0.0 -0.0 0.0 -0.0 28.4012 16.0931 1.23776 -30.2121 -0.035886 -4.58296 41.1938 -10.0293 4.97999 21.2474 -0.0 -0.0 0.0 0.0 0.0 
1041.4 574.639 -1682.42 -23.0307348195 18.3936954763 4.91788029716 11.1977 0.39744 1.57245 11.199 0.296589 1.59454 11.2037 0.270805 1.59912 11.2005 0.519928 1.53631 -19.01 4.49614 -6.75605 -19.0853 12.2065 -4.48903 -0.0 0.0 -0.0 -0.809282 20.1046 1.1586 -43.8164 -45.284 56.2666 0.399887 -11.205 0.0392271 5.00883 0.149354 -0.62216 5.32864 6.90721 41.3892 -0.0 0.0 -0.0 11.6294 25.541 -22.5875 -17.775 -8.07516 -72.9049 1.06727 27.8644 -0.264767 -46.6875 3.68878 -4.49854 8.10899 2.92894 -68.565 0.0 0.0 0.0 44.8357 -10.1829 -1.85265 -10.5794 0.288969 1.59558 26.2245 29.1668 -3.75938 11.4425 -0.0 -0.0 -0.0 0.0 -0.0 28.4012 16.0931 1.23776 -30.2121 -0.035886 -4.58296 41.1938 -10.0293 4.97999 21.2474 -0.0 -0.0 0.0 0.0 0.0 
1041.4 574.639 -1682.42 -23.1829988026 19.4351139518 5.38758401464 11.1977 0.39744 1.57245 11.199 0.296589 1.59454 11.2037 0.270805 1.59912 11.2005 0.519928 1.53631 -19.01 4.49614 -6.75605 -19.0853 12.2065 -4.48903 -0.0 0.0 -0.0 -0.809282 20.1046 1.1586 -43.8164 -45.284 56.2666 0.399887 -11.205 0.0392271 5.00883 0.149354 -0.62216 5.32864 6.90721 41.3892 -0.0 0.0 -0.0 11.6294 25.541 -22.5875 -17.775 -8.07516 -72.9049 1.06727 27.8644 -0.264767 -46.6875 3.68878 -4.49854 8.10899 2.92894 -68.565 0.0 0.0 0.0 44.8357 -10.1829 -1.85265 -10.5794 0.288969 1.59558 26.2245 29.1668 -3.75938 11.4425 -0.0 -0.0 -0.0 0.0 -0.0 28.4012 16.0931 1.23776 -30.2121 -0.035886 -4.58296 41.1938 -10.0293 4.97999 21.2474 -0.0 -0.0 0.0 0.0 0.0 
1041.4 574.639 -1682.42 -23.3470901988 20.4859307311 5.86824252933 11.1977 0.39744 1.57245 11.199 0.296589 1.59454 11.2037 0.270805 1.59912 11.2005 0.519928 1.53631 -19.01 4.49614 -6.75605 -19.0853 12.2065 -4.48903 -0.0 0.0 -0.0 -0.809282 20.1046 1.1586 -43.8164 -45.284 56.2666 0.399887 -11.205 0.0392271 5.00883 0.149354 -0.62216 5.32864 6.90721 41.3892 -0.0 0.0 -0.0 11.6294 25.541 -22.5875 -17.775 -8.07516 -72.9049 1.06727 27.8644 -0.264767 -46.6875 3.68878 -4.49854 8.10899 2.92894 -68.565 0.0 0.0 0.0 44.8357 -10.1829 -1.85265 -10.5794 0.288969 1.59558 26.2245 29.1668 -3.75938 11.4425 -0.0 -0.0 -0.0 0.0 -0.0 28.4012 16.0931 1.23776 -30.2121 -0.035886 -4.58296 41.1938 -10.0293 4.97999 21.2474 -0.0 -0.0 0.0 0.0 0.0 
1017.86489525 572.623 -1701.85085805 -24.2219774168 22.6408830151 7.81424734218 11.3264 0.335259 1.34325 11.3274 0.249113 1.36186 11.3307 0.230094 1.3652 11.3284 0.442796 1.31175 -16.8162 4.71526 -6.9554 -16.8644 12.9663 -4.81288 -0.0 0.0 -0.0 -2.79108 21.9646 -1.39541 -41.6303 -52.7029 54.3805 0.53923 -14.9558 0.0707797 -6.79388 -0.28833 0.818742 4.99381 12.512 40.2983 -0.0 0.0 -0.0 11.9428 26.7611 -23.1627 -24.7704 -2.22198 -72.8107 1.01617 26.7191 -0.241333 -49.8266 4.05149 -4.67381 7.24079 7.75873 -52.4483 0.0 0.0 0.0 46.1531 -10.9743 -2.32911 -17.7568 0.315595 2.69577 26.7984 27.6953 -3.79212 17.6529 -0.0 -0.0 -0.0 0.0 -0.0 27.6146 18.4159 0.904089 -31.2358 0.00524761 -4.73467 41.4242 -12.6394 5.02558 21.981 -0.0 -0.0 0.0 0.0 0.0 
